<svg width="96" height="96" viewBox="0 0 96 96" fill="none" xmlns="http://www.w3.org/2000/svg">
  <rect width="96" height="96" rx="48" fill="#ECF6F1"/>
  <circle cx="48" cy="42" r="21" fill="#C48E6A"/>
  <path d="M27 36c3-15 15-22 28-17 9 3 14 12 14 23-13-7-28-7-42-6Z" fill="#1F2937"/>
  <path d="M26 82c5-16 15-25 22-25s18 9 23 25H26Z" fill="#2F9B73"/>
  <circle cx="40" cy="47" r="2" fill="#1F2937"/>
  <circle cx="56" cy="47" r="2" fill="#1F2937"/>
  <path d="M42 57c4 3 8 3 12 0" stroke="#7C4A32" stroke-width="3" stroke-linecap="round"/>
  <path d="M69 23h13v26H69z" fill="#FFFFFF" stroke="#A7D7C5" stroke-width="2"/>
  <path d="M73 43l3-5 3 2 2-8" stroke="#2F9B73" stroke-width="2" stroke-linecap="round" stroke-linejoin="round"/>
</svg>
