<svg xmlns="http://www.w3.org/2000/svg" viewBox="0 0 1200 800" role="img" aria-labelledby="title desc">
  <title id="title">Abstract video workflow</title>
  <desc id="desc">A cinematic frame and orange timeline on a blue charcoal field.</desc>
  <rect width="1200" height="800" fill="#151d29"/>
  <rect x="90" y="84" width="1020" height="508" rx="42" fill="#d4e4ed"/>
  <circle cx="846" cy="240" r="104" fill="#ff9d5c"/>
  <path d="M90 496 334 294l180 146 164-122 432 274H90Z" fill="#38536f"/>
  <path d="M0 676h1200" stroke="#70869a" stroke-width="4"/>
  <g fill="#ff6b1a">
    <rect x="88" y="648" width="42" height="56" rx="12"/><rect x="146" y="622" width="42" height="108" rx="12"/><rect x="204" y="638" width="42" height="76" rx="12"/><rect x="262" y="606" width="42" height="140" rx="12"/><rect x="320" y="630" width="42" height="92" rx="12"/><rect x="378" y="650" width="42" height="52" rx="12"/><rect x="436" y="618" width="42" height="116" rx="12"/><rect x="494" y="638" width="42" height="76" rx="12"/><rect x="552" y="612" width="42" height="128" rx="12"/><rect x="610" y="646" width="42" height="60" rx="12"/><rect x="668" y="624" width="42" height="104" rx="12"/><rect x="726" y="640" width="42" height="72" rx="12"/><rect x="784" y="610" width="42" height="132" rx="12"/><rect x="842" y="632" width="42" height="88" rx="12"/><rect x="900" y="650" width="42" height="52" rx="12"/><rect x="958" y="620" width="42" height="112" rx="12"/><rect x="1016" y="638" width="42" height="76" rx="12"/>
  </g>
</svg>
